<?xml version="1.0" encoding="UTF-8" standalone="no"?>
<!-- Created with Inkscape (http://www.inkscape.org/) -->

<svg
   xmlns:dc="http://purl.org/dc/elements/1.1/"
   xmlns:cc="http://creativecommons.org/ns#"
   xmlns:rdf="http://www.w3.org/1999/02/22-rdf-syntax-ns#"
   xmlns:svg="http://www.w3.org/2000/svg"
   xmlns="http://www.w3.org/2000/svg"
   xmlns:xlink="http://www.w3.org/1999/xlink"
   xmlns:sodipodi="http://sodipodi.sourceforge.net/DTD/sodipodi-0.dtd"
   xmlns:inkscape="http://www.inkscape.org/namespaces/inkscape"
   width="547.2511"
   height="632.65631"
   viewBox="0 0 144.79352 167.39032"
   version="1.1"
   id="svg16559"
   inkscape:version="0.92.5 (2060ec1f9f, 2020-04-08)"
   sodipodi:docname="mojimojiacademia_logo_D.svg">
  <defs
     id="defs16553">
    <linearGradient
       inkscape:collect="always"
       id="linearGradient20565">
      <stop
         style="stop-color:#ffffff;stop-opacity:1"
         offset="0"
         id="stop20561" />
      <stop
         id="stop20569"
         offset="0.48678952"
         style="stop-color:#ffffff;stop-opacity:1" />
      <stop
         style="stop-color:#ffffff;stop-opacity:0.50196081"
         offset="1"
         id="stop20563" />
    </linearGradient>
    <linearGradient
       inkscape:collect="always"
       id="linearGradient17777">
      <stop
         style="stop-color:#d72500;stop-opacity:1;"
         offset="0"
         id="stop17773" />
      <stop
         style="stop-color:#ef454a;stop-opacity:0.75"
         offset="1"
         id="stop17775" />
    </linearGradient>
    <linearGradient
       inkscape:collect="always"
       id="linearGradient17709">
      <stop
         style="stop-color:#eb6101;stop-opacity:1"
         offset="0"
         id="stop17705" />
      <stop
         style="stop-color:#ef454a;stop-opacity:0"
         offset="1"
         id="stop17707" />
    </linearGradient>
    <linearGradient
       inkscape:collect="always"
       xlink:href="#linearGradient17709"
       id="linearGradient17711"
       x1="189.77673"
       y1="2.7704811"
       x2="191.19254"
       y2="6.0442643"
       gradientUnits="userSpaceOnUse"
       gradientTransform="matrix(28.784724,0,0,28.784724,-5398.4243,21.637666)" />
    <radialGradient
       inkscape:collect="always"
       xlink:href="#linearGradient17777"
       id="radialGradient17779"
       cx="188.78082"
       cy="5.1330285"
       fx="188.78082"
       fy="5.1330285"
       r="1.407635"
       gradientTransform="matrix(1,0,0,1.0669284,0,-0.34354533)"
       gradientUnits="userSpaceOnUse" />
    <radialGradient
       inkscape:collect="always"
       xlink:href="#linearGradient17777"
       id="radialGradient17781"
       gradientUnits="userSpaceOnUse"
       gradientTransform="matrix(49.787589,0,0,53.891272,-8971.936,170.07417)"
       cx="188.78082"
       cy="5.1330285"
       fx="188.78082"
       fy="5.1330285"
       r="1.407635" />
    <radialGradient
       inkscape:collect="always"
       xlink:href="#linearGradient17777"
       id="radialGradient17783"
       gradientUnits="userSpaceOnUse"
       gradientTransform="matrix(1,0,0,1.0669284,0,-0.34354533)"
       cx="188.78082"
       cy="5.1330285"
       fx="188.78082"
       fy="5.1330285"
       r="1.407635" />
    <linearGradient
       inkscape:collect="always"
       xlink:href="#linearGradient20565"
       id="linearGradient20567"
       x1="188.17387"
       y1="4.4812064"
       x2="189.43895"
       y2="5.9333291"
       gradientUnits="userSpaceOnUse" />
    <linearGradient
       inkscape:collect="always"
       xlink:href="#linearGradient20565"
       id="linearGradient881"
       gradientUnits="userSpaceOnUse"
       x1="188.17387"
       y1="4.4812064"
       x2="189.43895"
       y2="5.9333291" />
    <linearGradient
       inkscape:collect="always"
       xlink:href="#linearGradient20565"
       id="linearGradient883"
       gradientUnits="userSpaceOnUse"
       x1="188.17387"
       y1="4.4812064"
       x2="189.43895"
       y2="5.9333291" />
  </defs>
  <sodipodi:namedview
     id="base"
     pagecolor="#ffffff"
     bordercolor="#666666"
     borderopacity="1.0"
     inkscape:pageopacity="0.0"
     inkscape:pageshadow="2"
     inkscape:zoom="1"
     inkscape:cx="155.38139"
     inkscape:cy="315.33793"
     inkscape:document-units="mm"
     inkscape:current-layer="layer1"
     showgrid="false"
     inkscape:window-width="1920"
     inkscape:window-height="1048"
     inkscape:window-x="1280"
     inkscape:window-y="0"
     inkscape:window-maximized="1"
     inkscape:object-paths="true"
     inkscape:snap-intersection-paths="true"
     inkscape:snap-smooth-nodes="true"
     inkscape:snap-midpoints="true"
     inkscape:snap-object-midpoints="true"
     inkscape:snap-center="true"
     inkscape:snap-text-baseline="true"
     inkscape:snap-page="true"
     inkscape:snap-bbox="true"
     inkscape:snap-global="true"
     showguides="false"
     inkscape:guide-bbox="true"
     units="px"
     width="256px"
     fit-margin-top="0"
     fit-margin-left="0"
     fit-margin-right="0"
     fit-margin-bottom="0">
    <sodipodi:guide
       position="-32.60324,-71.762544"
       orientation="0,793.70079"
       id="guide19041"
       inkscape:locked="false" />
    <sodipodi:guide
       position="177.39676,-71.762544"
       orientation="-1122.5197,0"
       id="guide19043"
       inkscape:locked="false" />
    <sodipodi:guide
       position="177.39676,225.23746"
       orientation="0,-793.70079"
       id="guide19045"
       inkscape:locked="false" />
    <sodipodi:guide
       position="-32.60324,225.23746"
       orientation="1122.5197,0"
       id="guide19047"
       inkscape:locked="false" />
    <sodipodi:guide
       position="71.506351,85.547508"
       orientation="1,0"
       id="guide19049"
       inkscape:locked="false" />
  </sodipodi:namedview>
  <metadata
     id="metadata16556">
    <rdf:RDF>
      <cc:Work
         rdf:about="">
        <dc:format>image/svg+xml</dc:format>
        <dc:type
           rdf:resource="http://purl.org/dc/dcmitype/StillImage" />
        <dc:title></dc:title>
      </cc:Work>
    </rdf:RDF>
  </metadata>
  <g
     inkscape:groupmode="layer"
     id="layer4"
     inkscape:label="レイヤー 2"
     style="display:inline"
     transform="translate(-32.60324,-57.847143)" />
  <g
     inkscape:groupmode="layer"
     id="layer5"
     inkscape:label="レイヤー 3"
     style="display:inline"
     transform="translate(-32.60324,-57.847143)" />
  <g
     inkscape:label="レイヤー 1"
     inkscape:groupmode="layer"
     id="layer1"
     style="display:inline"
     transform="translate(-32.60324,-57.847143)">
    <path
       style="display:inline;fill:#f8f4e6;fill-opacity:1;stroke:url(#linearGradient17711);stroke-width:5;stroke-linecap:round;stroke-linejoin:round;stroke-miterlimit:4;stroke-dasharray:none;stroke-dashoffset:0;stroke-opacity:1;paint-order:stroke fill markers"
       d="M 160.92969,139.68994 A 55.929691,55.929691 0 0 1 105,195.61963 55.929691,55.929691 0 0 1 49.070309,139.68994 55.929691,55.929691 0 0 1 105,83.76025 a 55.929691,55.929691 0 0 1 55.92969,55.92969 z"
       id="path17568" />
    <g
       id="g17161"
       transform="matrix(55.69323,0,0,56.502123,-10409.583,-157.47243)"
       style="fill:url(#radialGradient17779);fill-opacity:1;stroke:url(#linearGradient20567);stroke-width:0.08913257;stroke-miterlimit:4;stroke-dasharray:none;stroke-opacity:1"
       inkscape:export-xdpi="55.642944"
       inkscape:export-ydpi="55.642944">
      <g
         id="g17165"
         style="fill:url(#radialGradient17783);fill-opacity:1;stroke:url(#linearGradient883);stroke-width:0.08913257;stroke-linecap:round;stroke-linejoin:round;stroke-miterlimit:4;stroke-dasharray:none;stroke-dashoffset:0;stroke-opacity:1;paint-order:stroke fill markers">
        <path
           style="color:#000000;font-style:normal;font-variant:normal;font-weight:normal;font-stretch:normal;font-size:medium;line-height:normal;font-family:sans-serif;font-variant-ligatures:normal;font-variant-position:normal;font-variant-caps:normal;font-variant-numeric:normal;font-variant-alternates:normal;font-feature-settings:normal;text-indent:0;text-align:start;text-decoration:none;text-decoration-line:none;text-decoration-style:solid;text-decoration-color:#000000;letter-spacing:normal;word-spacing:normal;text-transform:none;writing-mode:lr-tb;direction:ltr;text-orientation:mixed;dominant-baseline:auto;baseline-shift:baseline;text-anchor:start;white-space:normal;shape-padding:0;clip-rule:nonzero;display:inline;overflow:visible;visibility:visible;opacity:1;isolation:auto;mix-blend-mode:normal;color-interpolation:sRGB;color-interpolation-filters:linearRGB;solid-color:#000000;solid-opacity:1;vector-effect:none;fill:url(#radialGradient17781);fill-opacity:1;fill-rule:nonzero;stroke:url(#linearGradient881);stroke-width:9.47466373;stroke-linecap:round;stroke-linejoin:round;stroke-miterlimit:4;stroke-dasharray:none;stroke-dashoffset:0;stroke-opacity:1;paint-order:stroke fill markers;color-rendering:auto;image-rendering:auto;shape-rendering:auto;text-rendering:auto;enable-background:accumulate"
           d="m 424.31561,373.62886 v 2.19753 2.43723 c -26.57449,18.72449 -31.25391,22.08266 -57.03043,40.01565 -2.74391,1.50109 0.95053,6.64494 3.20898,4.43945 10.20523,-7.52194 12.18409,-8.79832 22.58985,-16.17223 7.45583,15.31526 19.04157,29.21535 29.98826,42.6488 -12.0572,13.79492 -25.48604,29.13208 -32.96678,43.40624 h -22.82031 c -4.042,-0.44326 -4.042,5.96844 0,5.52539 h 20.09765 c -2.95263,6.76546 -4.68453,14.93859 -4.93945,21.3086 0,3.60141 5.44726,3.60057 5.44726,0.01 0.49592,-8.25098 2.54376,-14.67248 5.63477,-21.31836 h 65.83203 c 3.5154,6.7545 6.04973,14.7023 7.19727,21.31836 0,3.59078 5.47204,3.59078 5.44726,0 -1.2018,-7.98518 -3.65504,-14.68111 -6.61718,-21.31836 h 24.2539 c 4.04199,0.44326 4.04199,-5.96648 0,-5.52343 h -26.88086 c -9.4446,-17.0296 -20.7926,-30.44709 -32.28517,-43.40844 11.89339,-14.65619 23.86332,-26.85893 31.13199,-42.6488 8.35838,5.69311 11.69119,8.01094 25.07618,17.20762 2.24791,2.19307 5.9529,-2.92884 3.20899,-4.43946 -12.85937,-8.57789 -20.84586,-13.98422 -28.28517,-19.07476 -1.49731,-1.02457 -2.99809,-2.22881 -4.4863,-3.25176 -7.38158,-5.07384 -15.60115,-10.22602 -27.92782,-18.72427 v -2.4375 -2.1973 c -0.46048,-2.86559 -4.64233,-2.43565 -4.87492,-10e-6 z m 2.43742,9.46682 c 20.42583,13.89245 20.01655,13.61874 30.02851,20.42187 -7.31883,15.82068 -19.57163,30.12431 -30.02847,41.53322 -10.57058,-14.16706 -22.7432,-26.69872 -29.36718,-41.53321 10.36524,-7.03894 9.47932,-6.52943 29.36714,-20.42188 z m 0.0223,70.34179 c 10.09932,12.9386 23.64739,26.25926 29.9844,39.16409 h -60.48438 c 9.13791,-15.10586 19.69916,-27.80304 30.49998,-39.16409 z"
           transform="matrix(0.00947554,0,0,0.00933988,184.73472,1.0242619)"
           id="path17246"
           inkscape:connector-curvature="0"
           sodipodi:nodetypes="cccccccccccccccccccccccccsscccccccccccccc" />
      </g>
    </g>
    <g
       id="g17594"
       transform="translate(0.3917169)">
      <g
         id="g17589"
         transform="translate(2.194343,1.3596688)">
        <g
           id="g17587" />
      </g>
    </g>
    <g
       aria-label="ACADEMIA"
       style="font-style:normal;font-variant:normal;font-weight:normal;font-stretch:normal;font-size:24.52435303px;line-height:1.25;font-family:'Latin Modern Roman Caps';-inkscape-font-specification:'Latin Modern Roman Caps';letter-spacing:0px;word-spacing:0px;fill:#000000;fill-opacity:1;stroke:none;stroke-width:0.52640623"
       id="text17717">
      <path
         d="m 49.402422,224.69792 v -0.76025 h -0.441439 c -1.471461,0 -1.814802,-0.17167 -2.08457,-0.98098 l -5.29726,-15.32772 c -0.122622,-0.31881 -0.171671,-0.49049 -0.56406,-0.49049 -0.39239,0 -0.465963,0.14715 -0.588585,0.49049 l -5.076541,14.66557 c -0.441438,1.25074 -1.422412,1.6186 -2.746727,1.64313 v 0.76025 l 2.501484,-0.0736 2.8203,0.0736 v -0.76025 c -1.226217,0 -1.839326,-0.61311 -1.839326,-1.25075 0,-0.0736 0.02452,-0.31881 0.04905,-0.36786 l 1.12812,-3.21269 h 6.057515 l 1.299791,3.75223 c 0.02452,0.0981 0.07357,0.24524 0.07357,0.34334 0,0.73573 -1.373364,0.73573 -2.035521,0.73573 v 0.76025 c 0.882876,-0.0736 2.599581,-0.0736 3.531506,-0.0736 z m -6.351808,-6.35181 h -5.517979 l 2.746727,-7.97041 z"
         style="font-style:normal;font-variant:normal;font-weight:normal;font-stretch:normal;font-family:'Latin Modern Roman';-inkscape-font-specification:'Latin Modern Roman, ';letter-spacing:1.05833328px"
         id="path923" />
      <path
         d="m 66.891979,218.98375 c 0,-0.24525 0,-0.41692 -0.318816,-0.41692 -0.269768,0 -0.269768,0.14715 -0.294293,0.39239 -0.196195,3.50699 -2.8203,5.51798 -5.493455,5.51798 -1.495985,0 -6.302758,-0.83383 -6.302758,-8.14208 0,-7.33278 4.782248,-8.16661 6.278234,-8.16661 2.673154,0 4.855822,2.23171 5.346309,5.81227 0.04905,0.34334 0.04905,0.41691 0.392389,0.41691 0.39239,0 0.39239,-0.0736 0.39239,-0.58858 v -5.81227 c 0,-0.41692 0,-0.58859 -0.269768,-0.58859 -0.0981,0 -0.196195,0 -0.392389,0.2943 l -1.226218,1.8148 c -0.907401,-0.88288 -2.158143,-2.1091 -4.512481,-2.1091 -4.586054,0 -8.534475,3.89937 -8.534475,8.90234 0,5.07654 3.972945,8.92687 8.534475,8.92687 3.99747,0 6.400856,-3.40889 6.400856,-6.25371 z"
         style="font-style:normal;font-variant:normal;font-weight:normal;font-stretch:normal;font-family:'Latin Modern Roman';-inkscape-font-specification:'Latin Modern Roman, ';letter-spacing:1.05833328px"
         id="path925" />
      <path
         d="m 86.932119,224.69792 v -0.76025 h -0.441438 c -1.471462,0 -1.814802,-0.17167 -2.08457,-0.98098 L 79.10885,207.62897 c -0.122621,-0.31881 -0.17167,-0.49049 -0.56406,-0.49049 -0.392389,0 -0.465962,0.14715 -0.588584,0.49049 l -5.076541,14.66557 c -0.441439,1.25074 -1.422413,1.6186 -2.746728,1.64313 v 0.76025 l 2.501484,-0.0736 2.820301,0.0736 v -0.76025 c -1.226218,0 -1.839327,-0.61311 -1.839327,-1.25075 0,-0.0736 0.02452,-0.31881 0.04905,-0.36786 l 1.12812,-3.21269 h 6.057515 l 1.299791,3.75223 c 0.02452,0.0981 0.07357,0.24524 0.07357,0.34334 0,0.73573 -1.373364,0.73573 -2.035521,0.73573 v 0.76025 c 0.882877,-0.0736 2.599581,-0.0736 3.531507,-0.0736 z m -6.351807,-6.35181 h -5.51798 l 2.746728,-7.97041 z"
         style="font-style:normal;font-variant:normal;font-weight:normal;font-stretch:normal;font-family:'Latin Modern Roman';-inkscape-font-specification:'Latin Modern Roman, ';letter-spacing:1.05833328px"
         id="path927" />
      <path
         d="m 106.13843,216.45774 c 0,-4.65963 -3.31079,-8.50995 -7.504457,-8.50995 H 89.65806 v 0.76025 h 0.588584 c 1.888375,0 1.937424,0.26977 1.937424,1.15265 v 12.92433 c 0,0.88288 -0.04905,1.15265 -1.937424,1.15265 H 89.65806 v 0.76025 h 8.975913 c 4.120087,0 7.504457,-3.6296 7.504457,-8.24018 z m -2.45244,0 c 0,2.7222 -0.46596,4.19366 -1.34884,5.39536 -0.49049,0.66215 -1.88837,2.08457 -4.365335,2.08457 h -2.476959 c -1.152645,0 -1.201694,-0.17167 -1.201694,-0.98098 v -13.26767 c 0,-0.80931 0.04905,-0.98098 1.201694,-0.98098 h 2.452435 c 1.52051,0 3.212689,0.53954 4.463429,2.28077 1.05455,1.44694 1.27527,3.55603 1.27527,5.46893 z"
         style="font-style:normal;font-variant:normal;font-weight:normal;font-stretch:normal;font-family:'Latin Modern Roman';-inkscape-font-specification:'Latin Modern Roman, ';letter-spacing:1.05833328px"
         id="path929" />
      <path
         d="m 124.58452,218.37064 h -0.61311 c -0.6131,3.77675 -1.17717,5.56703 -5.39535,5.56703 h -3.26174 c -1.15265,0 -1.2017,-0.17167 -1.2017,-0.98098 v -6.548 h 2.2072 c 2.37886,0 2.64863,0.78478 2.64863,2.86935 h 0.6131 v -6.49895 h -0.6131 c 0,2.10909 -0.26977,2.86935 -2.64863,2.86935 h -2.2072 v -5.88585 c 0,-0.8093 0.049,-0.98097 1.2017,-0.98097 h 3.16364 c 3.75222,0 4.41438,1.34884 4.80677,4.75772 h 0.61311 l -0.68668,-5.51798 h -13.80721 v 0.76026 h 0.58858 c 1.88838,0 1.93743,0.26976 1.93743,1.15264 v 12.85076 c 0,0.88288 -0.049,1.15265 -1.93743,1.15265 h -0.58858 v 0.76025 h 14.15055 z"
         style="font-style:normal;font-variant:normal;font-weight:normal;font-stretch:normal;font-family:'Latin Modern Roman';-inkscape-font-specification:'Latin Modern Roman, ';letter-spacing:1.05833328px"
         id="path931" />
      <path
         d="m 147.91097,224.69792 v -0.76025 h -0.58859 c -1.88837,0 -1.93742,-0.26977 -1.93742,-1.15265 v -12.92433 c 0,-0.88288 0.049,-1.15265 1.93742,-1.15265 h 0.58859 v -0.76025 h -4.14462 c -0.63763,0 -0.63763,0.0245 -0.8093,0.46596 l -5.37084,13.80721 -5.32178,-13.73364 c -0.22072,-0.53953 -0.29429,-0.53953 -0.85835,-0.53953 h -4.14462 v 0.76025 h 0.58858 c 1.88838,0 1.93743,0.26977 1.93743,1.15265 v 12.26217 c 0,0.66216 0,1.81481 -2.52601,1.81481 v 0.76025 l 2.86935,-0.0736 2.86935,0.0736 v -0.76025 c -2.52601,0 -2.52601,-1.15265 -2.52601,-1.81481 v -13.21862 h 0.0245 l 5.91037,15.25415 c 0.12263,0.31881 0.24525,0.53953 0.49049,0.53953 0.26977,0 0.34334,-0.19619 0.44144,-0.46596 l 6.03299,-15.52392 h 0.0245 v 14.07698 c 0,0.88288 -0.049,1.15265 -1.93742,1.15265 h -0.58858 v 0.76025 c 0.9074,-0.0736 2.57505,-0.0736 3.5315,-0.0736 0.95645,0 2.59958,0 3.50699,0.0736 z"
         style="font-style:normal;font-variant:normal;font-weight:normal;font-stretch:normal;font-family:'Latin Modern Roman';-inkscape-font-specification:'Latin Modern Roman, ';letter-spacing:1.05833328px"
         id="path933" />
      <path
         d="m 158.06783,224.69792 v -0.76025 h -0.63764 c -1.93742,0 -2.01099,-0.26977 -2.01099,-1.15265 v -12.92433 c 0,-0.88288 0.0736,-1.15265 2.01099,-1.15265 h 0.63764 v -0.76025 c -0.85836,0.0736 -2.79578,0.0736 -3.72771,0.0736 -0.95645,0 -2.89387,0 -3.75222,-0.0736 v 0.76025 h 0.63763 c 1.93743,0 2.011,0.26977 2.011,1.15265 v 12.92433 c 0,0.88288 -0.0736,1.15265 -2.011,1.15265 h -0.63763 v 0.76025 c 0.85835,-0.0736 2.79577,-0.0736 3.7277,-0.0736 0.95645,0 2.89387,0 3.75223,0.0736 z"
         style="font-style:normal;font-variant:normal;font-weight:normal;font-stretch:normal;font-family:'Latin Modern Roman';-inkscape-font-specification:'Latin Modern Roman, ';letter-spacing:1.05833328px"
         id="path935" />
      <path
         d="m 177.39676,224.69792 v -0.76025 h -0.44144 c -1.47146,0 -1.8148,-0.17167 -2.08457,-0.98098 l -5.29726,-15.32772 c -0.12262,-0.31881 -0.17167,-0.49049 -0.56406,-0.49049 -0.39239,0 -0.46596,0.14715 -0.58858,0.49049 l -5.07654,14.66557 c -0.44144,1.25074 -1.42242,1.6186 -2.74673,1.64313 v 0.76025 l 2.50148,-0.0736 2.8203,0.0736 v -0.76025 c -1.22621,0 -1.83932,-0.61311 -1.83932,-1.25075 0,-0.0736 0.0245,-0.31881 0.049,-0.36786 l 1.12812,-3.21269 h 6.05751 l 1.29979,3.75223 c 0.0245,0.0981 0.0736,0.24524 0.0736,0.34334 0,0.73573 -1.37336,0.73573 -2.03552,0.73573 v 0.76025 c 0.88288,-0.0736 2.59958,-0.0736 3.53151,-0.0736 z m -6.35181,-6.35181 h -5.51798 l 2.74673,-7.97041 z"
         style="font-style:normal;font-variant:normal;font-weight:normal;font-stretch:normal;font-family:'Latin Modern Roman';-inkscape-font-specification:'Latin Modern Roman, ';letter-spacing:1.05833328px"
         id="path937" />
    </g>
    <g
       aria-label="MojiGlyph"
       style="font-style:normal;font-weight:normal;font-size:21.10892868px;line-height:1.25;font-family:sans-serif;letter-spacing:0px;word-spacing:0px;fill:#000000;fill-opacity:1;stroke:none;stroke-width:0.52772319"
       id="text17749">
      <path
         d="m 65.846559,73.224998 v -0.676189 h -0.523502 c -1.679567,0 -1.723192,-0.239938 -1.723192,-1.02519 v -11.49522 c 0,-0.785252 0.04362,-1.02519 1.723192,-1.02519 h 0.523502 v -0.67619 h -3.686323 c -0.501689,0 -0.567126,0 -0.741627,0.414439 l -5.060514,12.411347 -5.060514,-12.43316 c -0.152688,-0.392626 -0.283564,-0.392626 -0.741627,-0.392626 h -3.686323 v 0.67619 h 0.523501 c 1.679568,0 1.723193,0.239938 1.723193,1.02519 V 70.93468 c 0,0.588939 0,1.614129 -2.246694,1.614129 v 0.676189 l 2.552069,-0.06544 2.55207,0.06544 v -0.676189 c -2.246694,0 -2.246694,-1.02519 -2.246694,-1.614129 V 59.134084 l 0.02181,-0.02181 5.584016,13.720101 c 0.08725,0.196313 0.196313,0.392626 0.414438,0.392626 0.218126,0 0.327189,-0.196313 0.414439,-0.392626 l 5.649453,-13.872788 0.02181,0.02181 v 12.542223 c 0,0.785252 -0.04362,1.02519 -1.723193,1.02519 h -0.523501 v 0.676189 c 0.807065,-0.06544 2.290319,-0.06544 3.141009,-0.06544 0.85069,0 2.312131,0 3.119196,0.06544 z"
         style="font-style:normal;font-variant:normal;font-weight:normal;font-stretch:normal;font-size:21.81256104px;font-family:'Latin Modern Roman Caps';-inkscape-font-specification:'Latin Modern Roman Caps';text-align:center;text-anchor:middle;stroke-width:0.52772319"
         id="path904" />
      <path
         d="m 79.915626,67.662795 c 0,-3.250071 -2.595695,-5.954829 -5.823954,-5.954829 -3.250071,0 -5.823954,2.704758 -5.823954,5.954829 0,3.293697 2.63932,5.867579 5.823954,5.867579 3.184634,0 5.823954,-2.573882 5.823954,-5.867579 z m -1.87588,-0.239938 c 0,4.297075 -2.399382,5.540391 -3.948074,5.540391 -1.548692,0 -3.948073,-1.243316 -3.948073,-5.540391 0,-4.100761 2.486632,-5.169577 3.948073,-5.169577 1.483254,0 3.948074,1.090628 3.948074,5.169577 z"
         style="font-style:normal;font-variant:normal;font-weight:normal;font-stretch:normal;font-size:21.81256104px;font-family:'Latin Modern Roman Caps';-inkscape-font-specification:'Latin Modern Roman Caps';text-align:center;text-anchor:middle;stroke-width:0.52772319"
         id="path906" />
      <path
         d="m 89.12052,62.558656 v -0.545314 c -0.785253,0.06544 -1.963131,0.06544 -2.072194,0.06544 -0.239938,0 -2.072193,-0.02181 -2.661132,-0.06544 v 0.545314 h 0.392626 c 1.570504,0 1.657755,0.239938 1.657755,1.090628 v 7.045457 c 0,1.78863 -1.047003,2.355757 -1.723193,2.355757 -0.479876,0 -1.308753,-0.174501 -1.810442,-0.785252 0.785252,-0.04363 0.93794,-0.588939 0.93794,-0.916128 0,-0.501689 -0.392626,-0.894315 -0.894315,-0.894315 -0.479876,0 -0.916128,0.305376 -0.916128,0.93794 0,1.156066 1.156066,2.137631 2.72657,2.137631 1.461442,0 2.901071,-0.85069 3.162822,-2.312131 0.02181,-0.130876 0.02181,-0.76344 0.02181,-1.134253 v -6.107517 c 0,-1.330567 0,-1.417817 1.177879,-1.417817 z"
         style="font-style:normal;font-variant:normal;font-weight:normal;font-stretch:normal;font-size:21.81256104px;font-family:'Latin Modern Roman Caps';-inkscape-font-specification:'Latin Modern Roman Caps';text-align:center;text-anchor:middle;stroke-width:0.52772319"
         id="path908" />
      <path
         d="m 96.013283,73.224998 v -0.545314 c -1.548692,0 -1.657755,-0.109062 -1.657755,-1.047002 v -8.027023 c 0,-0.93794 0.109063,-1.047003 1.657755,-1.047003 v -0.545314 l -2.443007,0.06544 -2.443007,-0.06544 v 0.545314 c 1.548692,0 1.657755,0.109063 1.657755,1.047003 v 8.027023 c 0,0.93794 -0.109063,1.047002 -1.657755,1.047002 v 0.545314 l 2.443007,-0.06544 z"
         style="font-style:normal;font-variant:normal;font-weight:normal;font-stretch:normal;font-size:21.81256104px;font-family:'Latin Modern Roman Caps';-inkscape-font-specification:'Latin Modern Roman Caps';text-align:center;text-anchor:middle;stroke-width:0.52772319"
         id="path910" />
      <path
         d="m 113.98679,67.946359 v -0.67619 l -2.77019,0.06544 c -0.89432,0 -2.83564,0 -3.62089,-0.06544 v 0.67619 h 0.76344 c 2.09401,0 2.09401,0.305376 2.09401,1.047003 v 1.396004 c 0,2.639319 -3.38095,2.639319 -3.6427,2.639319 -1.98494,0 -6.12933,-1.134253 -6.12933,-7.263582 0,-6.172955 4.18801,-7.241771 5.97664,-7.241771 2.31213,0 4.53701,1.78863 5.0387,5.169577 0.0436,0.305376 0.0654,0.370814 0.349,0.370814 0.34901,0 0.34901,-0.06544 0.34901,-0.523502 v -5.169577 c 0,-0.370813 0,-0.523501 -0.23994,-0.523501 -0.0872,0 -0.1745,0 -0.349,0.261751 l -1.13426,1.679567 c -0.67619,-0.654377 -1.96313,-1.941318 -4.27526,-1.941318 -4.3407,0 -7.961583,3.533635 -7.961583,7.91796 0,4.384324 3.577263,7.939772 8.005213,7.939772 1.72319,0 3.59907,-0.567127 4.36251,-1.854068 0.28356,0.479876 1.15606,1.352379 1.396,1.352379 0.19632,0 0.19632,-0.174501 0.19632,-0.501689 v -3.795386 c 0,-0.959752 0.23993,-0.959752 1.59231,-0.959752 z"
         style="font-style:normal;font-variant:normal;font-weight:normal;font-stretch:normal;font-size:21.81256104px;font-family:'Latin Modern Roman Caps';-inkscape-font-specification:'Latin Modern Roman Caps';text-align:center;text-anchor:middle;stroke-width:0.52772319"
         id="path912" />
      <path
         d="m 125.74376,68.993362 h -0.54532 c -0.1745,1.745005 -0.39262,3.686322 -3.44638,3.686322 h -1.37419 c -0.76344,0 -0.8725,-0.06544 -0.8725,-0.93794 v -8.09246 c 0,-1.090628 0.32718,-1.090628 1.96313,-1.090628 v -0.545314 l -2.68295,0.06544 -2.42119,-0.06544 v 0.545314 c 1.46144,0 1.5705,0.130875 1.5705,1.02519 v 8.070648 c 0,0.894315 -0.10906,1.02519 -1.5705,1.02519 v 0.545314 h 8.96496 z"
         style="font-style:normal;font-variant:normal;font-weight:normal;font-stretch:normal;font-size:21.81256104px;font-family:'Latin Modern Roman Caps';-inkscape-font-specification:'Latin Modern Roman Caps';text-align:center;text-anchor:middle;stroke-width:0.52772319"
         id="path914" />
      <path
         d="m 138.11143,62.558656 v -0.545314 c -0.45807,0.04362 -1.06882,0.06544 -1.52688,0.06544 -0.58894,0 -1.19969,-0.02181 -1.78863,-0.06544 v 0.545314 c 0.47987,0.04362 0.63256,0.305376 0.63256,0.654377 0,0.327188 -0.1745,0.588939 -0.32719,0.828877 l -2.68294,3.969886 -3.01014,-4.42795 c -0.10906,-0.152687 -0.26175,-0.370813 -0.26175,-0.588939 0,-0.436251 0.63257,-0.436251 0.89432,-0.436251 v -0.545314 l -2.35576,0.06544 c -0.58894,0 -1.46144,-0.02181 -2.11582,-0.06544 v 0.545314 c 1.13426,0 1.39601,0.130875 1.78863,0.698002 l 3.72995,5.474953 v 2.922883 c 0,0.894315 -0.10906,1.02519 -1.5705,1.02519 v 0.545314 l 2.31213,-0.06544 2.33394,0.06544 v -0.545314 c -1.48325,0 -1.5705,-0.130875 -1.5705,-1.090628 v -2.835633 l 3.16282,-4.667888 c 0.78525,-1.177878 1.50507,-1.483254 2.35576,-1.526879 z"
         style="font-style:normal;font-variant:normal;font-weight:normal;font-stretch:normal;font-size:21.81256104px;font-family:'Latin Modern Roman Caps';-inkscape-font-specification:'Latin Modern Roman Caps';text-align:center;text-anchor:middle;stroke-width:0.52772319"
         id="path916" />
      <path
         d="m 149.5848,65.088913 c 0,-1.570504 -1.65775,-3.075571 -4.1662,-3.075571 h -5.9112 v 0.545314 c 1.46144,0 1.57051,0.130875 1.57051,1.02519 v 8.070648 c 0,0.894315 -0.10907,1.02519 -1.57051,1.02519 v 0.545314 l 2.35576,-0.06544 2.35575,0.06544 v -0.545314 c -1.46144,0 -1.5705,-0.130875 -1.5705,-1.02519 v -3.533635 h 2.92288 c 2.18126,0 4.01351,-1.374191 4.01351,-3.031946 z m -1.87588,0 c 0,0.85069 0,2.530257 -2.74838,2.530257 h -2.37757 v -4.122574 c 0,-0.872502 0.10906,-0.93794 0.8725,-0.93794 h 1.50507 c 2.74838,0 2.74838,1.657755 2.74838,2.530257 z"
         style="font-style:normal;font-variant:normal;font-weight:normal;font-stretch:normal;font-size:21.81256104px;font-family:'Latin Modern Roman Caps';-inkscape-font-specification:'Latin Modern Roman Caps';text-align:center;text-anchor:middle;stroke-width:0.52772319"
         id="path918" />
      <path
         d="m 163.13038,73.224998 v -0.545314 c -1.46144,0 -1.5705,-0.130875 -1.5705,-1.02519 v -8.070648 c 0,-0.894315 0.10906,-1.02519 1.5705,-1.02519 v -0.545314 l -2.35575,0.06544 -2.35576,-0.06544 v 0.545314 c 1.46144,0 1.5705,0.130875 1.5705,1.02519 v 3.533635 h -5.2132 v -3.533635 c 0,-0.894315 0.10906,-1.02519 1.57051,-1.02519 v -0.545314 l -2.35576,0.06544 -2.35576,-0.06544 v 0.545314 c 1.46144,0 1.57051,0.130875 1.57051,1.02519 v 8.070648 c 0,0.894315 -0.10907,1.02519 -1.57051,1.02519 v 0.545314 l 2.35576,-0.06544 2.35576,0.06544 v -0.545314 c -1.46145,0 -1.57051,-0.130875 -1.57051,-1.02519 v -3.991699 h 5.2132 v 3.991699 c 0,0.894315 -0.10906,1.02519 -1.5705,1.02519 v 0.545314 l 2.35576,-0.06544 z"
         style="font-style:normal;font-variant:normal;font-weight:normal;font-stretch:normal;font-size:21.81256104px;font-family:'Latin Modern Roman Caps';-inkscape-font-specification:'Latin Modern Roman Caps';text-align:center;text-anchor:middle;stroke-width:0.52772319"
         id="path920" />
    </g>
    <flowRoot
       xml:space="preserve"
       id="flowRoot19013"
       style="font-style:normal;font-weight:normal;font-size:40px;line-height:1.25;font-family:sans-serif;letter-spacing:0px;word-spacing:0px;fill:#000000;fill-opacity:1;stroke:none"><flowRegion
         id="flowRegion19015"><rect
           id="rect19017"
           width="995.60632"
           height="1019.648"
           x="-65.053825"
           y="61.859512" /></flowRegion><flowPara
         id="flowPara19019" /></flowRoot>  </g>
  <g
     inkscape:groupmode="layer"
     id="layer8"
     inkscape:label="circles"
     style="display:none;opacity:0.18300003"
     transform="translate(-32.60324,-57.847143)">
    <circle
       style="display:inline;opacity:0.20400002;fill:none;fill-opacity:1;stroke:#000000;stroke-width:0.11807767;stroke-linecap:square;stroke-linejoin:miter;stroke-miterlimit:5;stroke-dasharray:none;stroke-dashoffset:0;stroke-opacity:1;paint-order:normal"
       id="path18167"
       cx="153.44827"
       cy="-105"
       r="82.753555"
       transform="rotate(90)" />
    <ellipse
       transform="matrix(0,-1,-1,0,0,0)"
       cy="-104.98785"
       cx="-159.27193"
       id="circle19023"
       style="display:inline;opacity:0.20400002;fill:none;fill-opacity:1;stroke:#000000;stroke-width:0.12940566;stroke-linecap:square;stroke-linejoin:miter;stroke-miterlimit:5;stroke-dasharray:none;stroke-dashoffset:0;stroke-opacity:1;paint-order:normal"
       rx="75.503365"
       ry="108.93766" />
  </g>
  <g
     inkscape:groupmode="layer"
     id="layer7"
     inkscape:label="レイヤー 4"
     style="display:none;opacity:0.13500001"
     transform="translate(-32.60324,-57.847143)">
    <path
       sodipodi:type="spiral"
       style="fill:none;fill-rule:evenodd;stroke:#0000ff;stroke-width:0.26458332"
       id="path17828"
       sodipodi:cx="112.91781"
       sodipodi:cy="118.84955"
       sodipodi:expansion="1"
       sodipodi:revolution="3"
       sodipodi:radius="28.690182"
       sodipodi:argument="-18.144737"
       sodipodi:t0="0"
       d="m 112.91781,118.84955 c 1.09573,0.93198 -0.7157,1.93683 -1.54902,1.82118 -2.25824,-0.31342 -2.84435,-3.1262 -2.09334,-4.91922 1.34338,-3.2073 5.44832,-3.90182 8.28942,-2.3655 4.16942,2.25462 4.98753,7.80083 2.63765,11.65962 -3.13201,5.14315 -10.16397,6.08509 -15.02981,2.90981 -6.123166,-3.99576 -7.188738,-12.53216 -3.18197,-18.40001 4.85272,-7.10677 14.90316,-8.2959 21.77021,-3.45413 8.09258,5.70586 9.40528,17.27593 3.72629,25.14041 -6.55662,9.07986 -19.64988,10.51612 -28.510616,3.99845 -10.068128,-7.4058 -11.627998,-22.02466 -4.270603,-31.88082 8.253889,-11.057119 24.400029,-12.740622 35.251009,-4.542758 12.04665,9.101188 13.85382,26.775858 4.81492,38.621208" />
  </g>
</svg>
